<svg xmlns="http://www.w3.org/2000/svg" width="78" height="78" viewBox="0 0 428.22 428.22">
  <defs>
    <style>
      .a {
        fill: #8c9ea9;
      }

      .b {
        fill: #fefefe;
      }

      .c {
        fill: #024284;
      }

      .d {
        fill: #b20e18;
      }

      .e {
        fill: #41535c;
      }
    </style>
  </defs>
  <title>out</title>
  <circle class="a" cx="214.11" cy="214.11" r="214.11"/>
  <g>
    <g>
      <path class="a" d="M397,105.34a10.23,10.23,0,0,0-1.33-1.92c-4.06-3.72-8.07-7.5-12.27-11A199.48,199.48,0,0,0,338.8,64.11a202.24,202.24,0,0,0-54.55-16.5,204.92,204.92,0,0,0-132,24.1,196.84,196.84,0,0,0-35.81,26.05c-2.65,2.42-5,5.12-7.56,7.69-.66.58-1.37,1.11-2,1.74a202.89,202.89,0,0,0-35.53,49.43,194.09,194.09,0,0,0-13.9,35.19c-3.76,13.06-7.1,26.25-7.37,40-.09,5-.86,10-1,15a196.94,196.94,0,0,0,2.44,34.12,201.79,201.79,0,0,0,20.69,62.84A199.14,199.14,0,0,0,107,391.61a11.21,11.21,0,0,0,2.35,1.42,17.39,17.39,0,0,0,1.91,2.69,204.33,204.33,0,0,0,62.66,41.42c33.56,14.12,68.45,18.72,104.49,14.41a198.24,198.24,0,0,0,63.23-18.69,203.32,203.32,0,0,0,53.79-37.8,8.06,8.06,0,0,0,1.17-2.15,30.9,30.9,0,0,0,4-3,192.21,192.21,0,0,0,27-35.24,199.42,199.42,0,0,0,18-38.37c3.79-11.09,7.16-22.27,8.32-34,1-9.87,2.71-19.73,2.85-29.61a233.68,233.68,0,0,0-2-32c-2.94-23.73-10.56-46.06-21.72-67.18a214.41,214.41,0,0,0-30.93-43.39A69.75,69.75,0,0,0,397,105.34Z" transform="translate(-38.6 -35.13)"/>
      <path class="b" d="M396.62,392.91a8.06,8.06,0,0,1-1.17,2.15,203.32,203.32,0,0,1-53.79,37.8,198.24,198.24,0,0,1-63.23,18.69c-36,4.31-70.93-.29-104.49-14.41a204.33,204.33,0,0,1-62.66-41.42,17.39,17.39,0,0,1-1.91-2.69c10-10.07,20-20.21,30.1-30.15,1.69-1.66,1.37-2.43,0-3.79a156.81,156.81,0,0,1-43.76-94.5c-3.73-42.9,7.65-81.39,34.73-115,3.37-4.19,7.08-8.11,10.71-12.25-6.92-6.91-13.75-13.78-20.63-20.59-3.84-3.8-7.77-7.51-11.66-11.26,2.52-2.57,4.91-5.27,7.56-7.69a196.84,196.84,0,0,1,35.81-26.05,204.38,204.38,0,0,1,186.54-7.6,199.48,199.48,0,0,1,44.55,28.27c4.2,3.54,8.21,7.32,12.27,11a10.48,10.48,0,0,1,1.33,1.91l-32.18,32.05C395.13,168.73,411,206,411,249.35s-16,80.54-46.13,111.73ZM114.68,181.85a12.89,12.89,0,0,0-1.15,1.72,151.35,151.35,0,0,0-14.27,54.8c-1.53,25,2.14,49.26,12.37,72.38,9.36,21.18,22.47,39.58,40,54.67Q201.43,408.2,267,402.8a148.77,148.77,0,0,0,58.76-17.52c28.06-15,49.17-36.85,64.16-64.79,5.07-9.45,8.56-19.5,11.45-29.78,3-10.68,5.45-21.53,5.55-32.67.09-8.66-.35-17.36-1.07-26a130.49,130.49,0,0,0-2.95-18.86,150.36,150.36,0,0,0-27-57.06,154,154,0,0,0-56-45.78A147.38,147.38,0,0,0,282.27,98a155.54,155.54,0,0,0-51.34-1.25A149.47,149.47,0,0,0,183.12,112c-4.64,2.41-9.15,5.08-13.61,7.81-13.21,8.07-24.31,18.6-34.32,30.27a150,150,0,0,0-12,16.26c-3.21,5-5.73,10.36-8.55,15.57Z" transform="translate(-38.6 -35.13)"/>
      <path class="c" d="M108.89,105.45c3.89,3.75,7.82,7.46,11.66,11.26,6.88,6.81,13.71,13.68,20.63,20.59-3.63,4.14-7.34,8.06-10.71,12.25-27.08,33.65-38.46,72.14-34.73,115a156.81,156.81,0,0,0,43.76,94.5c1.34,1.36,1.66,2.13,0,3.79-10.14,9.94-20.09,20.08-30.1,30.15a11.21,11.21,0,0,1-2.35-1.42,199.14,199.14,0,0,1-34.73-47.84A201.79,201.79,0,0,1,51.6,280.93a196.94,196.94,0,0,1-2.44-34.12c.09-5,.86-10,1-15,.27-13.75,3.61-26.94,7.37-40a194.09,194.09,0,0,1,13.9-35.19,202.89,202.89,0,0,1,35.53-49.43C107.52,106.56,108.23,106,108.89,105.45Z" transform="translate(-38.6 -35.13)"/>
      <path class="d" d="M396.62,392.91l-31.73-31.83C395,329.89,411,292.73,411,249.35s-15.89-80.62-46.25-112l32.18-32c1.75,1.59,3.65,3,5.22,4.79a214.41,214.41,0,0,1,30.93,43.39c11.16,21.12,18.78,43.45,21.72,67.18a233.68,233.68,0,0,1,2,32c-.14,9.88-1.86,19.74-2.85,29.61-1.16,11.73-4.53,22.91-8.32,34a199.42,199.42,0,0,1-18,38.37,192.21,192.21,0,0,1-27,35.24A30.9,30.9,0,0,1,396.62,392.91Z" transform="translate(-38.6 -35.13)"/>
      <path class="a" d="M114.65,181.88c2.82-5.21,5.34-10.61,8.55-15.57a150,150,0,0,1,12-16.26c10-11.67,21.11-22.2,34.32-30.27,4.46-2.73,9-5.4,13.61-7.81A149.47,149.47,0,0,1,230.93,96.7,155.54,155.54,0,0,1,282.27,98a147.38,147.38,0,0,1,37.54,12.4,154,154,0,0,1,56,45.78,150.36,150.36,0,0,1,27,57.06,130.49,130.49,0,0,1,2.95,18.86c.72,8.63,1.16,17.33,1.07,26-.1,11.14-2.55,22-5.55,32.67C398.44,301,395,311,389.88,320.49c-15,27.94-36.1,49.78-64.16,64.79A148.77,148.77,0,0,1,267,402.8q-65.4,5.28-115.3-37.38c-17.56-15.09-30.67-33.49-40-54.67-10.23-23.12-13.9-47.34-12.37-72.38a151.35,151.35,0,0,1,14.27-54.8,12.89,12.89,0,0,1,1.15-1.72l-.34,6.44a41.06,41.06,0,0,0,5.17-.72,36.28,36.28,0,0,0,4.51-1.81l.68.66-3.06,1.69c1.55.51,2.77.64,3.6,1.28s1.18,1.74,2,3c-2.46-.94-4.72-1.84-7-2.68-.77-.28-1.58-.43-2.37-.64a9.89,9.89,0,0,0-.37,2.44,9.68,9.68,0,0,0,.65,2.16c1.08-.66,2-1.75,2.76-1.59a8.22,8.22,0,0,1,3.77,2.07c.33.31-.39,1.76-.67,2.84-1.17-.62-1.94-1.38-2.62-1.31-2.16.21-4.29.74-7,1.25,1.15.41,1.82.69,2.51.87,3.43.93,4.63,2.27,4.76,5.72,0,1.33.25,2.2,1.81,2.32s2.57,0,3-1.71a25.08,25.08,0,0,1,1.49-3.52l.68.21-.52,3.79c3.9-3.48,3.51.45,4.49,2.17l3.42-1.37c.75,1.4.45,4.41,3.42,1.79-.82,2.36,0,3.29,2.22,3.25.16-.76.33-1.53.5-2.3h.46l.71,2.87,2.94-1.62.34.45-1.28,1.94,1.9,6.86.92-.3-.38-2.1,3.77-3.37c.15,1.84.4,3.67.45,5.52.15,6.31,3.4,8.7,9.14,6.67,1.26,1.1,2.49,2.4,4.12.5a11.56,11.56,0,0,1-1.72,8.84c-.82,1.32-1.9,3.26-1.48,4.43,1.41,3.92,2.21,7.73,1.15,11.86a17.43,17.43,0,0,0-.5,4.72,17.9,17.9,0,0,0,.83,3.75,15.27,15.27,0,0,1,.94,3.43c0,2.37-1.13,5.12-.26,7,1.22,2.67.28,4.69,0,7.08-.57,4.2-2.38,8.95,2.7,11.25.22,1.58.41,2.73.53,3.88a14.38,14.38,0,0,1,.22,3.57c-.16,1.09-1.1,2.09-1.2,3.17-.74,8-2.72,16-1.06,24.09a1.79,1.79,0,0,1,0,1.05c-2.31,4.55,2.78,7.26,2.77,11.22,2.94,1.15,2.22,3.53,2,5.77-.19,1.65-.33,3.31-.5,5a15,15,0,0,0-2.12,1.36c-.43.39-.92,1.11-.83,1.57a2.2,2.2,0,0,0,1.25,1.48c.57.17,1.32-.26,2-.43a7.73,7.73,0,0,1-.08,2.46c-.9,2.4-.27,3.48,2.31,3.68.43,0,.85.13,1.28.2.44,1-.46,3.49,1.65,2.51,1.3-.6,2-.21,3-.1a17,17,0,0,1,3.66.54c2.39.81,4.74,1.77,7,2.81.37.17.24,1.26.62,1.65,1.09,1.13,2.18,2.62,3.55,3s3.56-.67,4.93-.08c2,.86,4.46,1.07,5.79,3.46.51.91,3.14,1.81,3.49,1.45,2-2.1,3.57-.95,5.28.44l1.38-2.21a18.36,18.36,0,0,0,1.65,1.54c1.75,1.27,5.87.57,6.21-1,.78-3.7,1.48-3.9,4.76-2.05,1.95,1.1,4.35,2.65,6.24,2.32,3.62-.65,4.33,1.05,4.78,3.76.05.3.35.56.78,1.21,2.12-3.61,4.64-1.91,6.84-.55.83.51,1,2.15,1.57,3.74l5.06,1.46c0,.67.11,1.7.2,3.09a13.37,13.37,0,0,1,2.8-1.36c1.47-.31,3.11-.77,4.49-.41,3.57.93,6.83,2.93,10.51-.29,2.14-1.87,5.22-2,8.52-.16l-4.09-7.57c1-1.13,1.74-2.37,1.48-3.34-.32-1.18-1.49-2.14-2.3-3.2,3.05-2.1,3.23-3.83.73-6.87,1.17-.64,2.84-1,3.31-1.92,2-3.91,5-5,8.46-4.13,2.16-1.73,4.07-3.12,5.78-4.71a11.3,11.3,0,0,0,1.63-2.77l7.11-.64c.26,1.61,1.19,2.09,2.78,2,2.11-.07,4.11.19,5.05-2.5.23-.67,2.22-1.38,2.93-1.06.94.43,2.43,1.6.59,3.19-.33.29.26,2.26.94,2.88.43.39,1.86-.21,2.78-.54.43-.15.7-.72,1-1.09-.29,1.1-.28,2.42-.91,3.26-2,2.69-4.29,5.17-6.39,7.79-1.76,2.18-1.21,4.3,1.54,4.72a14.34,14.34,0,0,0,6.92-.56,20.07,20.07,0,0,0,10.39-8.7,9.65,9.65,0,0,1,2.23-1.95l5.81,2.55c.4,1.13,1.79,1.75,3.85,1.52a28.24,28.24,0,0,1,4.59.14c.5,0,1.09.33,1.49.16,3.06-1.27,6-2.93,9.13-3.85,2.44-.7,1.72-1.49.46-2.93,2.9-1,2.25-5.68,6.27-5.41.14,0,.42-.39.43-.61.08-2.95,2.57-2.9,4.43-3.48.39-2.89.4-2.86,3.3-3.65a6.3,6.3,0,0,0,1.43-.94c.85-.53,1.72-1,2.57-1.56.54-.33,1.06-.69,1.6-1.06-2.4-3-2.41-3.3,0-5.41,1.58-1.36,2.14-2.76,1.29-3.76-4.64-.41-8.72-.12-12.33-1.29s-5.47-6.68-4.61-10.06l-1.55-1.31,3.31-7.27c-1-1.69-1.66-4-4.54-4.21-.81-.07-1.67-1.47-2.19-2.43a30.34,30.34,0,0,1-1.52-4.26l6-1a5.46,5.46,0,0,1,1.71-1.33c3.63-1.33,3.77-1.53,2.11-4.8,2.26-2.88,2.3-2.95-1-4.53a3.2,3.2,0,0,1-2-3.36,3.61,3.61,0,0,0-1.12-2.64c-3-2.14-3.07-3.72.31-5.45,2.11-1.08,2-2.47.92-4.07a29.45,29.45,0,0,0-2.68-3.14c-2.66-2.91-2.68-3.71-.07-6.68l-4-4.59a9,9,0,0,0-9.73,4c1.22,1.7,1.59,3.57-.76,4.44-1.81.68-3.88.67-5.84,1a8.11,8.11,0,0,1,1.88-2.53,3.54,3.54,0,0,0,1-1.86c.14-2.64-1.77-5.64,1.47-7.69-.65-3.57,2.15-5.26,4.28-6.93a3.38,3.38,0,0,0,1.52-3.88,4.27,4.27,0,0,1,.42-2.5c3.59-.17,4.82-3.19,6.56-5.43,1.92-2.47,3.47-5.22,4.91-7.43a21.52,21.52,0,0,1-2.09-2.61c-.14-.24.5-1.24.57-1.22a9.23,9.23,0,0,1,2.6,1.09c2.79,1.95,7.24-.18,8.2-3.3,1.23-4-.76-8.36,1.82-12.08.26-.38-.13-1.17-.13-1.76,0-1.84-.64-4.07.17-5.45,2.27-3.86,2.65-8.05,3.28-12.26a9.06,9.06,0,0,1,1.34-3.2c1.16-1.87,2.6-3.57,3.66-5.48a66.46,66.46,0,0,0,2.61-6.13c-2.85-.39-5.6-.71-8.34-1.15s-5.66-.08-7.45-3.05c-.29-.48-2.17-.21-3.23,0s-1.76,1.26-2.67,1.31c-1.15.06-2.73-.14-3.43-.88-2-2-3.4-1-5.42.78-.87-1.29-1.64-2.45-2.43-3.6-1-1.51-2.84-2.59-2.54-4.85,0-.21-.79-.63-1.28-.8a27.61,27.61,0,0,0-4.48-1.39,4.05,4.05,0,0,0-2.89.48c-1.46,1.13-2.68,1.2-4,0-2.28-2.06-4.79-3.07-7.83-1.78a13.06,13.06,0,0,0-13-9.83c-.12-.58-.05-1.43-.4-1.68-1.66-1.18-.76-2.39-.38-3.74a10.33,10.33,0,0,0,.15-3.38c0-.22-1.08-.67-1.26-.52-1,.79-2.64,1.72-2.67,2.65-.08,2.71-2.18,3.69-3.81,4.13-1.81.48-4-.35-6-.71-.22,0-.34-.69-.49-1.05l2.21-1.77c-.74-1.88-4.73-3.63-.42-5.37-3.24-3.22-7-3.73-11.21-1.57-.1-1.92-.19-3.55-.29-5.43l-7.7-1c-.07-.69-.07-1.31-.19-1.91a19.73,19.73,0,0,0-1.13-4.6c-.38-.79-1.89-1.78-2.5-1.57-1.41.48-2.57,1.65-3.9,2.58-1.55-1.19-3.51-2.58-5.31-4.15-.52-.45-1-1.81-.79-2.08,2-2.29-.27-3.73-.74-5.63-1.66.56-3.1,1.14-4.58,1.52a57.34,57.34,0,0,1-8.21,1.8,8.17,8.17,0,0,0-6.62,4.29c-1.18,2.62-.63,6-.78,9.11-.15,2.91-.24,5.83-.35,8.75l-.73,0,1.71,2c-1,.63-2.42,1-2.76,1.78-2.64,6.24-8.54,8.25-14,9-4,.51-7,3.25-10.86,3.28a1.38,1.38,0,0,0-1,.76c-.89,2.51-1.69,5.05-2.51,7.58l.79.84,6-1c-.92,3.38-3.38,3-5.78,2.74-1.22,1-2.62,2.1-4,2-2.36-.13-4.67-1.14-7-1.49-3-.45-6-.61-8.94-.89.1-1.47-.38-3.56.41-4.3,2.17-2,1.5-3.53.66-6-2.06-6-9.39-9.46-14.48-9.41-2.65,0-5.23.9-6.28,3.29-2.59,5.86-4.25,11.93-.75,18.14,1.2,2.11.63,3.66-1.51,5a19.53,19.53,0,0,0-3.84,2.74,3,3,0,0,1-4.24.42c-1.95-1.26-3.33-.78-4.57,1.19-1.85,2.94-3.94,5.72-5.93,8.57L150.18,174l-2.13,2.43-.57-2.12-4,1.73-1.06-1.64-.89-.05c-.38,1.77-.77,3.54-1.19,5.48-.51-.25-.88-.57-1.26-.58-1.47-.07-3.47-3.09-4.39.7a5,5,0,0,1-2.43-.38c-.53-.33-.68-1.3-.8-1.57l-10.81,1.17-.27,2Z" transform="translate(-38.6 -35.13)"/>
      <path class="b" d="M293.22,346.3a11.3,11.3,0,0,1-1.63,2.77c-1.71,1.59-3.62,3-5.78,4.71-3.45-.85-6.47.22-8.46,4.13-.47.94-2.14,1.28-3.31,1.92,2.5,3,2.32,4.77-.73,6.87.81,1.06,2,2,2.3,3.2.26,1-.5,2.21-1.48,3.34l4.09,7.57c-3.3-1.85-6.38-1.71-8.52.16-3.68,3.22-6.94,1.22-10.51.29-1.38-.36-3,.1-4.49.41a13.37,13.37,0,0,0-2.8,1.36c-.09-1.39-.16-2.42-.2-3.09l-5.06-1.46c-.62-1.59-.74-3.23-1.57-3.74-2.2-1.36-4.72-3.06-6.84.55-.43-.65-.73-.91-.78-1.21-.45-2.71-1.16-4.41-4.78-3.76-1.89.33-4.29-1.22-6.24-2.32-3.28-1.85-4-1.65-4.76,2.05-.34,1.59-4.46,2.29-6.21,1a18.36,18.36,0,0,1-1.65-1.54l-1.38,2.21c-1.71-1.39-3.27-2.54-5.28-.44-.35.36-3-.54-3.49-1.45-1.33-2.39-3.8-2.6-5.79-3.46-1.37-.59-3.44.55-4.93.08s-2.46-1.91-3.55-3c-.38-.39-.25-1.48-.62-1.65-2.3-1-4.65-2-7-2.81a17,17,0,0,0-3.66-.54c-1-.11-1.73-.5-3,.1-2.11,1-1.21-1.52-1.65-2.51,1.49.06,3,.21,4.48.18,3.45-.08,6.91-.17,10.35-.44.69-.05,2-1.17,1.88-1.37a25.08,25.08,0,0,0-2.4-4.7c-.65-1-1.89-1.56-2.49-2.55a59.25,59.25,0,0,1-3.33-6.43c-1.63-3.58-3-7.28-1.94-11.29.49-1.9,1.85-3.67,2-5.55.33-5.21.13-10.45.31-15.67a67.27,67.27,0,0,1,.89-8c.34-2.16.92-4.29,1.41-6.43,1.06-4.66,2.13-9.32,3.3-14.45,2.6,4.4,5.34,7.84,6.77,11.75a51.73,51.73,0,0,1,2.91,16.32c.13,4.76.9,9.52,1.5,14.26a5,5,0,0,0,1.23,2.32,25,25,0,0,1,5.42,13.13,23.7,23.7,0,0,1,.16,3.95c-.25,5-.54,9.38-.87,15,4.35-.39,8.08-.05,11.84-.47.52,0,1-.59,1.47-.91a8.23,8.23,0,0,1,2.11-1.36c3-.78,6.2-1.1,9.1-2.18s4-3.44,3.25-5.27c-1.41-3.52-3-4.44-6.58-3.32a3.45,3.45,0,0,1-4.36-1.43,41.66,41.66,0,0,1-3.85-5.83,17.61,17.61,0,0,1-1.4-5.8,65.05,65.05,0,0,1,0-7.12c.07-3.89.06-7.78.28-11.66.26-4.76.51-9.34-.57-14.2s-3.12-9.61-1.88-14.77a24.62,24.62,0,0,0,.55-5c.09-2.84-.5-5.82.19-8.48a11,11,0,0,0-.15-6.73c-1.14-3.17-2.08-6.42-3.46-9.48a46.5,46.5,0,0,0-4-6.43c-.79-1.19-1.75-2.2-.56-3.76.4-.52.14-1.54.19-2.5l3.61-1.76q-.48-2.76-1-5.63l1.34.18-2.8-6.84c6.07,3.29,9.26-1.61,12.93-3.56,1.45.9,2.81,1.6,4,2.52,2,1.56,3.95,3.26,5.91,4.91,1.41,1.18,2.13.52,2.82-1.12-.38-.27-.73-.54-1.1-.78-2.22-1.43-4.53-2.74-6.64-4.32-3.89-2.92-4.31-5.15-1.86-9.14,1.15-1.88,1.18-3.4-.76-4.81a45.84,45.84,0,0,1-5.79-4.67,9.9,9.9,0,0,1-2.39-4.09c-.86-2.92-.08-6.56-4-7.72,1-2.83-.35-5-3-5.41a1.68,1.68,0,0,1-1-.68c-4-5.63-8.5-10.69-15-13.69,1.19-3.79,2.33-7.4,3.47-11,3,.28,6,.44,8.94.89,2.37.35,4.68,1.36,7,1.49,1.34.07,2.74-1.05,4-2,2.4.22,4.86.64,5.78-2.74l-6,1-.79-.84c.82-2.53,1.62-5.07,2.51-7.58a1.38,1.38,0,0,1,1-.76c3.9,0,6.86-2.77,10.86-3.28,5.49-.7,11.39-2.71,14-9,.34-.8,1.75-1.15,2.76-1.78l-1.71-2,.73,0c.11-2.92.2-5.84.35-8.75.15-3.08-.4-6.49.78-9.11a8.17,8.17,0,0,1,6.62-4.29,57.34,57.34,0,0,0,8.21-1.8c1.48-.38,2.92-1,4.58-1.52.47,1.9,2.75,3.34.74,5.63-.25.27.27,1.63.79,2.08,1.8,1.57,3.76,3,5.31,4.15,1.33-.93,2.49-2.1,3.9-2.58.61-.21,2.12.78,2.5,1.57a19.73,19.73,0,0,1,1.13,4.6c.12.6.12,1.22.19,1.91l7.7,1c.1,1.88.19,3.51.29,5.43,4.25-2.16,8-1.65,11.21,1.57-4.31,1.74-.32,3.49.42,5.37l-2.21,1.77c.15.36.27,1,.49,1.05,2,.36,4.16,1.19,6,.71,1.63-.44,3.73-1.42,3.81-4.13,0-.93,1.66-1.86,2.67-2.65.18-.15,1.24.3,1.26.52a10.33,10.33,0,0,1-.15,3.38c-.38,1.35-1.28,2.56.38,3.74.35.25.28,1.1.4,1.68H299.6c-.28.88-1.72,3-1.16,4.19,1.12,2.32-.11,3.8-.62,5.64-.37,1.33-.5,2.73-.74,4.09-.09.51,0,1.18-.31,1.49-1.49,1.56-4.38,2.89-.47,4.94.06,0,.06.17.08.25.4,2.44.94,4.86,1.16,7.3a2.86,2.86,0,0,0,2.53,2.91c1.52.33,3,.68,4.53,1-.78,3.18-1.47,6-2.29,9.41-2.47,1.7-5,6.24-5.13,10.22s0,8-.19,12c-.31,6.91-.56,13.84-4.31,20.06a9.13,9.13,0,0,0-1,4.34c-.18,9.08,0,18.13-3.45,26.86a6.4,6.4,0,0,0,2,7.51,7.15,7.15,0,0,1,2.74,5.19c.51,3.59,1.68,7.22,1.45,10.76-.5,7.77,3.87,14,5.9,20.92.71,2.42,2.16,4.71,2.48,7.16.68,5.05.93,10.17,1.14,15.27.15,3.78-3.07,8.11-6.51,9.56-3,1.27-6,2.66-8.88,4.21a3.29,3.29,0,0,0-1.54,2.42c0,.62,1.18,1.54,2,1.76A22.51,22.51,0,0,0,293.22,346.3Z" transform="translate(-38.6 -35.13)"/>
      <path class="e" d="M196,161.73c-1.14,3.62-2.28,7.23-3.47,11,6.48,3,11,8.06,15,13.69a1.68,1.68,0,0,0,1,.68c2.62.39,3.94,2.58,3,5.41,4,1.16,3.18,4.8,4,7.72a9.9,9.9,0,0,0,2.39,4.09,45.84,45.84,0,0,0,5.79,4.67c1.94,1.41,1.91,2.93.76,4.81-2.45,4-2,6.22,1.86,9.14,2.11,1.58,4.42,2.89,6.64,4.32.37.24.72.51,1.1.78-.69,1.64-1.41,2.3-2.82,1.12-2-1.65-3.88-3.35-5.91-4.91-1.19-.92-2.55-1.62-4-2.52-3.67,1.95-6.86,6.85-12.93,3.56l2.8,6.84-1.34-.18q.51,2.86,1,5.63l-3.61,1.76c0,1,.21,2-.19,2.5-1.19,1.56-.23,2.57.56,3.76a46.5,46.5,0,0,1,4,6.43c1.38,3.06,2.32,6.31,3.46,9.48a11,11,0,0,1,.15,6.73c-.69,2.66-.1,5.64-.19,8.48a24.62,24.62,0,0,1-.55,5c-1.24,5.16.82,10,1.88,14.77s.83,9.44.57,14.2c-.22,3.88-.21,7.77-.28,11.66a65.05,65.05,0,0,0,0,7.12,17.61,17.61,0,0,0,1.4,5.8,41.66,41.66,0,0,0,3.85,5.83,3.45,3.45,0,0,0,4.36,1.43c3.58-1.12,5.17-.2,6.58,3.32.74,1.83-.39,4.2-3.25,5.27s-6.08,1.4-9.1,2.18a8.23,8.23,0,0,0-2.11,1.36,7.52,7.52,0,0,1-1.47.91c-6.41,2.22-11.89,1.35-11.84.47.33-5.63.62-10,.87-15a23.7,23.7,0,0,0-.16-3.95A25,25,0,0,0,200.23,324a5,5,0,0,1-1.23-2.32c-.6-4.74-1.37-9.5-1.5-14.26a51.73,51.73,0,0,0-2.91-16.32c-1.43-3.91-4.17-7.35-6.77-11.75-1.17,5.13-2.24,9.79-3.3,14.45-.49,2.14-1.07,4.27-1.41,6.43a67.27,67.27,0,0,0-.89,8c-.18,5.22,0,10.46-.31,15.67-.12,1.88-1.48,3.65-2,5.55-1,4,.31,7.71,1.94,11.29a59.25,59.25,0,0,0,3.33,6.43c.6,1,1.84,1.58,2.49,2.55a25.08,25.08,0,0,1,2.4,4.7c.08.2-1.19,1.32-1.88,1.37-3.44.27-6.9.36-10.35.44-1.49,0-3-.12-4.48-.18-.43-.07-.85-.16-1.28-.2-2.58-.2-3.21-1.28-2.31-3.68a7.73,7.73,0,0,0,.08-2.46,28,28,0,0,0,.89-3.19c0-.19-.76-.52-1.18-.79.17-1.66.31-3.32.5-5,.25-2.24,1-4.62-2-5.77,0-4-5.08-6.67-2.77-11.22a1.79,1.79,0,0,0,0-1.05c-1.66-8.11.32-16.08,1.06-24.09.1-1.08,1-2.08,1.2-3.17a14.38,14.38,0,0,0-.22-3.57c-.12-1.15-.31-2.3-.53-3.88-5.08-2.3-3.27-7.05-2.7-11.25.32-2.39,1.26-4.41,0-7.08-.87-1.9.27-4.65.26-7a15.27,15.27,0,0,0-.94-3.43,17.9,17.9,0,0,1-.83-3.75,17.43,17.43,0,0,1,.5-4.72c1.06-4.13.26-7.94-1.15-11.86-.42-1.17.66-3.11,1.48-4.43a11.56,11.56,0,0,0,1.72-8.84c.32-1.24.1-1.95-1.39-1.43-.91.32-1.82.62-2.73.93-5.74,2-9-.36-9.14-6.67,0-1.85-.3-3.68-.45-5.52.05-1.57.09-3.15.16-4.72.36-7.95-.72-16.24,4.74-22.05-.45-2.12-.73-3.46-1-4.8,2-2.85,4.08-5.63,5.93-8.57,1.24-2,2.62-2.45,4.57-1.19a3,3,0,0,0,4.24-.42,19.53,19.53,0,0,1,3.84-2.74c2.14-1.3,2.71-2.85,1.51-5-3.5-6.21-1.84-12.28.75-18.14,1.05-2.39,3.63-3.26,6.28-3.29,5.09-.05,12.42,3.37,14.48,9.41.84,2.46,1.51,4-.66,6C195.57,158.17,196.05,160.26,196,161.73Z" transform="translate(-38.6 -35.13)"/>
      <path class="e" d="M293.22,346.3A22.51,22.51,0,0,1,289,346c-.81-.22-2-1.14-2-1.76a3.29,3.29,0,0,1,1.54-2.42c2.88-1.55,5.86-2.94,8.88-4.21,3.44-1.45,6.66-5.78,6.51-9.56-.21-5.1-.46-10.22-1.14-15.27-.32-2.45-1.77-4.74-2.48-7.16-2-6.94-6.4-13.15-5.9-20.92.23-3.54-.94-7.17-1.45-10.76a7.15,7.15,0,0,0-2.74-5.19,6.4,6.4,0,0,1-2-7.51c3.42-8.73,3.27-17.78,3.45-26.86a9.13,9.13,0,0,1,1-4.34c3.75-6.22,4-13.15,4.31-20.06.18-4,.05-8,.19-12s2.66-8.52,5.13-10.22c.82-3.36,1.51-6.23,2.29-9.41-1.5-.34-3-.69-4.53-1a2.86,2.86,0,0,1-2.53-2.91c-.22-2.44-.76-4.86-1.16-7.3,0-.08,0-.22-.08-.25-3.91-2-1-3.38.47-4.94.3-.31.22-1,.31-1.49.24-1.36.37-2.76.74-4.09.51-1.84,1.74-3.32.62-5.64-.56-1.17.88-3.31,1.16-4.19h12.82a13.06,13.06,0,0,1,13,9.83c0,1.94.51,4-.08,5.79-1.28,3.77-1.24,7.2,1.08,10.47.42.6,1,1.34,1.61,1.49,2.76.66,3.41,2.56,3.25,5-.14,2.12-.37,4.24-.51,6.37a8.51,8.51,0,0,0,0,2.62c.79,3.24,1.74,6.45,2.56,9.69,1.73,6.77,1,13.58.27,20.37a64.07,64.07,0,0,1-1.6,10.47c-1.28,4.53-3,8.7-2.24,13.78s1.22,10.72-.23,16.08c-.4,1.49.54,3.71-.25,4.65-1.8,2.15-1.33,4.31-1.29,6.62.16,9.57-.11,19.19,3.07,28.4,1.51,4.35,3.11,8.59,2.92,13.33-.32,7.41-.4,14.82-.63,22.23-.13,4.11-.77,8.24-.4,12.29.29,3.11-.22,5.37-2.74,7.14a9.65,9.65,0,0,0-2.23,1.95,20.07,20.07,0,0,1-10.39,8.7,14.34,14.34,0,0,1-6.92.56c-2.75-.42-3.3-2.54-1.54-4.72,2.1-2.62,4.38-5.1,6.39-7.79.63-.84.62-2.16.91-3.26,3.25-3,1.16-7.32,2.81-10.69l-.45-.18.37.62c-1.19.83-2.27,2.07-3.59,2.41-1.92.5-4.17-.08-6,.57a97.15,97.15,0,0,0-9.25,4.35ZM318.13,333c3.74-4.86,2.7-9.89,2.63-14.69s-2.26-9.16-4.83-13.48C316.67,314.34,317.38,323.42,318.13,333Z" transform="translate(-38.6 -35.13)"/>
      <path class="b" d="M330.22,353.14c2.52-1.77,3-4,2.74-7.14-.37-4.05.27-8.18.4-12.29.23-7.41.31-14.82.63-22.23.19-4.74-1.41-9-2.92-13.33-3.18-9.21-2.91-18.83-3.07-28.4,0-2.31-.51-4.47,1.29-6.62.79-.94-.15-3.16.25-4.65,1.45-5.36,1-10.85.23-16.08s1-9.25,2.24-13.78a64.07,64.07,0,0,0,1.6-10.47c.77-6.79,1.46-13.6-.27-20.37-.82-3.24-1.77-6.45-2.56-9.69a8.51,8.51,0,0,1,0-2.62c.14-2.13.37-4.25.51-6.37.16-2.46-.49-4.36-3.25-5-.62-.15-1.19-.89-1.61-1.49-2.32-3.27-2.36-6.7-1.08-10.47.59-1.74.09-3.85.08-5.79,3-1.29,5.55-.28,7.83,1.78,1.33,1.19,2.55,1.12,4,0a4.05,4.05,0,0,1,2.89-.48,27.61,27.61,0,0,1,4.48,1.39c.49.17,1.31.59,1.28.8-.3,2.26,1.51,3.34,2.54,4.85.79,1.15,1.56,2.31,2.43,3.6,2-1.82,3.46-2.83,5.42-.78.7.74,2.28.94,3.43.88.91-.05,1.73-1.08,2.67-1.31s2.94-.52,3.23,0c1.79,3,4.76,2.62,7.45,3.05s5.49.76,8.34,1.15a66.46,66.46,0,0,1-2.61,6.13c-1.06,1.91-2.5,3.61-3.66,5.48a9.06,9.06,0,0,0-1.34,3.2c-.63,4.21-1,8.4-3.28,12.26-.81,1.38-.18,3.61-.17,5.45,0,.59.39,1.38.13,1.76-2.58,3.72-.59,8.1-1.82,12.08-1,3.12-5.41,5.25-8.2,3.3a9.23,9.23,0,0,0-2.6-1.09c-.07,0-.71,1-.57,1.22a21.52,21.52,0,0,0,2.09,2.61c-1.44,2.21-3,5-4.91,7.43-1.74,2.24-3,5.26-6.56,5.43a4.27,4.27,0,0,0-.42,2.5,3.38,3.38,0,0,1-1.52,3.88c-2.13,1.67-4.93,3.36-4.28,6.93-3.24,2.05-1.33,5.05-1.47,7.69a3.54,3.54,0,0,1-1,1.86,8.11,8.11,0,0,0-1.88,2.53c2-.3,4-.29,5.84-1,2.35-.87,2-2.74.76-4.44a9,9,0,0,1,9.73-4l4,4.59c-2.61,3-2.59,3.77.07,6.68a29.45,29.45,0,0,1,2.68,3.14c1.1,1.6,1.19,3-.92,4.07-3.38,1.73-3.35,3.31-.31,5.45a3.61,3.61,0,0,1,1.12,2.64,3.2,3.2,0,0,0,2,3.36c3.32,1.58,3.28,1.65,1,4.53,1.66,3.27,1.52,3.47-2.11,4.8a5.46,5.46,0,0,0-1.71,1.33l-6,1a30.34,30.34,0,0,0,1.52,4.26c.52,1,1.38,2.36,2.19,2.43,2.88.25,3.51,2.52,4.54,4.21l-3.31,7.27L360,313.5c-.86,3.38,1.1,8.91,4.61,10.06s7.69.88,12.33,1.29c.85,1,.29,2.4-1.29,3.76-2.45,2.11-2.44,2.44,0,5.41-.54.37-1.06.73-1.6,1.06-.85.53-1.72,1-2.57,1.56a6.3,6.3,0,0,1-1.43.94c-2.9.79-2.91.76-3.3,3.65-1.86.58-4.35.53-4.43,3.48,0,.22-.29.62-.43.61-4-.27-3.37,4.44-6.27,5.41,1.26,1.44,2,2.23-.46,2.93-3.15.92-6.07,2.58-9.13,3.85-.4.17-1-.14-1.49-.16a28.24,28.24,0,0,0-4.59-.14c-2.06.23-3.45-.39-3.85-1.52Z" transform="translate(-38.6 -35.13)"/>
      <path class="b" d="M155.42,181.34c.28,1.34.56,2.68,1,4.8-5.46,5.81-4.38,14.1-4.74,22.05-.07,1.57-.11,3.15-.16,4.72l-3.77,3.37.38,2.1-.92.3-1.9-6.86,1.28-1.94-.34-.45-2.94,1.62-.71-2.87h-.46c-.17.77-.34,1.54-.5,2.3-2.17,0-3-.89-2.22-3.25-3,2.62-2.67-.39-3.42-1.79l-3.42,1.37c-1-1.72-.59-5.65-4.49-2.17l.52-3.79-.68-.21a25.08,25.08,0,0,0-1.49,3.52c-.46,1.73-1.56,1.83-3,1.71s-1.76-1-1.81-2.32c-.13-3.45-1.33-4.79-4.76-5.72-.69-.18-1.36-.46-2.51-.87,2.75-.51,4.88-1,7-1.25.68-.07,1.45.69,2.62,1.31.28-1.08,1-2.53.67-2.84a8.22,8.22,0,0,0-3.77-2.07c-.71-.16-1.68.93-2.76,1.59a9.68,9.68,0,0,1-.65-2.16,9.89,9.89,0,0,1,.37-2.44c.79.21,1.6.36,2.37.64,2.28.84,4.54,1.74,7,2.68-.81-1.3-1.19-2.44-2-3s-2-.77-3.6-1.28l3.06-1.69-.68-.66a36.28,36.28,0,0,1-4.51,1.81,41.06,41.06,0,0,1-5.17.72l.34-6.44,0,0,5.77-.72.27-2L131.5,178c.12.27.27,1.24.8,1.57a5,5,0,0,0,2.43.38c.92-3.79,2.92-.77,4.39-.7.38,0,.75.33,1.26.58.42-1.94.81-3.71,1.19-5.48l.89.05,1.06,1.64,4-1.73.57,2.12,2.13-2.43Z" transform="translate(-38.6 -35.13)"/>
      <path class="b" d="M300.33,345.66a97.15,97.15,0,0,1,9.25-4.35c1.83-.65,4.08-.07,6-.57,1.32-.34,2.4-1.58,3.59-2.41l-.37-.62.45.18c-1.65,3.37.44,7.73-2.81,10.69-.34.37-.61.94-1,1.09-.92.33-2.35.93-2.78.54-.68-.62-1.27-2.59-.94-2.88,1.84-1.59.35-2.76-.59-3.19-.71-.32-2.7.39-2.93,1.06-.94,2.69-2.94,2.43-5.05,2.5C301.52,347.75,300.59,347.27,300.33,345.66Z" transform="translate(-38.6 -35.13)"/>
      <path class="b" d="M169.59,345.7c.42.27,1.21.6,1.18.79a28,28,0,0,1-.89,3.19c-.67.17-1.42.6-2,.43a2.2,2.2,0,0,1-1.25-1.48c-.09-.46.4-1.18.83-1.57A15,15,0,0,1,169.59,345.7Z" transform="translate(-38.6 -35.13)"/>
      <path class="b" d="M161.12,225.1c.91-.31,1.82-.61,2.73-.93,1.49-.52,1.71.19,1.39,1.43C163.61,227.5,162.38,226.2,161.12,225.1Z" transform="translate(-38.6 -35.13)"/>
      <path class="b" d="M156.8,405.87l.38-.27v.26l-.41-.05Z" transform="translate(-38.6 -35.13)"/>
      <path class="b" d="M326.46,414.2l-2.59-5.32a37.23,37.23,0,0,1,5.62-.9c.39,0,1.38,2,1.14,2.24A41.31,41.31,0,0,1,326.46,414.2Z" transform="translate(-38.6 -35.13)"/>
      <path class="b" d="M282.38,432.61l-4.14.57.95-5.8.5-.16Z" transform="translate(-38.6 -35.13)"/>
      <path class="b" d="M318.13,333c-.75-9.59-1.46-18.67-2.2-28.17,2.57,4.32,4.77,8.57,4.83,13.48,0,2.67.31,5.21.18,8.21-.05,1.17-.35,9.51-.62,10.73C319.49,341,318.31,335,318.13,333Z" transform="translate(-38.6 -35.13)"/>
    </g>
    <path class="b" d="M318.45,335.15a5.29,5.29,0,0,1,0,2.87,2.1,2.1,0,0,1-.53,1.27c-.58.81-.08,1.55-.23,2-.36,1.06-2.44,5.67-1.8,6s1.22,1.06,2.27-1.23a38.93,38.93,0,0,0,2.27-7.77c.45-2.91.32-5.17-.49-6.26S318.45,335.15,318.45,335.15Z" transform="translate(-38.6 -35.13)"/>
  </g>
  <g>
    <g>
      <path class="e" d="M154.32,86.29a59.66,59.66,0,0,1,7.33-4.67c3.61-2,6.3-2.76,8.65-2.42a7,7,0,0,1,4.12,11.31l.08.14c1.79-.15,3.4.89,5,2.45,2,1.92,4.57,4.85,5.46,5.5L178.87,102a32.25,32.25,0,0,1-4.51-4.27c-2.16-2.36-3.32-2.43-5.33-1.33l-1.09.6,4.64,8.45-6,3.28Zm11.17,6.19,1.78-1c2.37-1.3,3.22-3.08,2.28-4.8s-2.64-1.92-4.68-.8a14.18,14.18,0,0,0-2.23,1.39Z" transform="translate(-38.6 -35.13)"/>
      <path class="e" d="M204.55,80.58l-9.44,3.25L196.56,88l10.53-3.64L209,89.89,192,95.77,183.51,71.3,200,65.6l1.9,5.52-10,3.46,1.29,3.73,9.44-3.25Zm-8.21-20.45-2.51,6.15-5.37,1.85,1.2-5.69Z" transform="translate(-38.6 -35.13)"/>
      <path class="e" d="M216.7,80.61a15.9,15.9,0,0,0,7.27.61c2.26-.38,3.28-1.33,3.07-2.62-.19-1.09-1.42-1.63-4.51-2-4.34-.52-8.13-2.18-8.87-6.61-.78-4.62,2.6-8.69,8.89-9.75a17.46,17.46,0,0,1,7.64.19l-.6,5.87A14.92,14.92,0,0,0,223.4,66c-2,.34-3.05,1.22-2.86,2.32.23,1.36,1.85,1.55,5.19,2.08,5,.8,7.6,2.81,8.25,6.68.72,4.28-1.82,8.75-9.54,10a18.5,18.5,0,0,1-8.16-.42Z" transform="translate(-38.6 -35.13)"/>
      <path class="e" d="M260.61,73.77l-10,.17.07,4.42,11.15-.19.09,5.83-18,.31-.43-25.88L261,58.14l.1,5.83-10.6.18.07,4,10-.17Z" transform="translate(-38.6 -35.13)"/>
      <path class="e" d="M274.3,59.61a59.15,59.15,0,0,1,8.64.87c4.06.69,6.65,1.75,8.28,3.46a7,7,0,0,1-3.76,11.44l0,.15c1.49,1,2.11,2.81,2.44,5,.39,2.75.58,6.64.88,7.7l-6.89-1.16A31,31,0,0,1,283,81c-.24-3.19-1.11-4-3.37-4.34l-1.22-.21-1.6,9.51-6.72-1.13Zm4.92,11.78,2,.34c2.65.44,4.43-.43,4.75-2.36s-.87-3.15-3.17-3.53a14.38,14.38,0,0,0-2.62-.29Z" transform="translate(-38.6 -35.13)"/>
      <path class="e" d="M303.65,92.33l.73-27.26,7.09,2.57L310.88,78a91.11,91.11,0,0,1-.91,9.47l.07,0c1.74-2.8,3.57-5.37,5.29-7.68l6.38-8.51,6.82,2.46L311.39,95.13Z" transform="translate(-38.6 -35.13)"/>
      <path class="e" d="M346,101.21l-8.63-5L335.15,100l9.65,5.58-2.93,5-15.6-9,13-22.4L354.37,88,351.45,93l-9.18-5.31-2,3.43,8.64,5Z" transform="translate(-38.6 -35.13)"/>
    </g>
    <g>
      <path class="e" d="M159.39,408c1.64-2.64,3.49-5.55,5.85-9.17l-.09-.06c-2.67,2.5-5.8,5.14-8.31,7.25l-7.17,6.11-4.61-3,3.08-8.72c1.07-3,2.52-6.66,4-10.12l-.06,0c-2.21,3.11-4.46,6.36-6.25,8.91l-5.39,7.57L135,403.17l14.8-20.12,8.25,5.39L156,394.6c-.88,2.61-2.12,5.91-3.38,8.84l.12.08c2.4-2.19,5.18-4.79,7.18-6.44l5-4.15,8,5.25-12.69,21.49-5.75-3.75Z" transform="translate(-38.6 -35.13)"/>
      <path class="e" d="M189,405.17,179,428l-6.32-2.76,10-22.85Z" transform="translate(-38.6 -35.13)"/>
      <path class="e" d="M198.44,408.91l6.63,1.92-5.29,18.34L210,432.11l-1.62,5.62-16.84-4.85Z" transform="translate(-38.6 -35.13)"/>
      <path class="e" d="M230.88,416.34,227.14,441l-6.82-1,3.74-24.66Z" transform="translate(-38.6 -35.13)"/>
      <path class="e" d="M246.41,423.35l-6.94-.12.1-5.7,20.91.36-.1,5.7-7.08-.12L253,442.7l-6.9-.12Z" transform="translate(-38.6 -35.13)"/>
      <path class="e" d="M275.61,435.29l-.69,6.23-7.19,1,4.17-25.79,9.32-1.33L293,439,285.36,440l-2.67-5.75Zm5.31-5.91L279,425.21c-.63-1.33-1.39-3.06-2-4.42h-.07c-.2,1.48-.3,3.33-.5,4.81l-.53,4.49Z" transform="translate(-38.6 -35.13)"/>
      <path class="e" d="M304.39,409.77l7.12,23.9-6.62,2-7.11-23.9Z" transform="translate(-38.6 -35.13)"/>
      <path class="e" d="M314.15,406.92a60.27,60.27,0,0,1,7.67-4.12c3.75-1.71,6.48-2.31,8.78-1.86a6.44,6.44,0,0,1,4.6,3.92,6.57,6.57,0,0,1-1.49,7.27l.06.14c1.79,0,3.3,1.05,4.79,2.65,1.82,2,4.11,4.95,4.94,5.63l-6.37,2.91a29.63,29.63,0,0,1-4.1-4.39c-1.94-2.4-3.08-2.53-5.17-1.58l-1.13.52,3.86,8.45-6.2,2.83Zm10.53,6.62,1.86-.85c2.46-1.13,3.45-2.81,2.67-4.52s-2.45-2-4.57-1a14.86,14.86,0,0,0-2.33,1.22Z" transform="translate(-38.6 -35.13)"/>
      <path class="e" d="M362.47,396.68l-8.27,5.62,2.39,3.52,9.24-6.27L369,404.2,354,414.35l-14-20.63,14.5-9.84,3.16,4.65-8.79,6,2.14,3.15,8.27-5.62Z" transform="translate(-38.6 -35.13)"/>
    </g>
  </g>
</svg>
